<svg width="495" height="489" viewBox="0 0 495 489" fill="none" xmlns="http://www.w3.org/2000/svg">
<path d="M331.285 465.238C354.992 465.626 450.306 474.452 495 478.816V489C488.393 486.284 383.104 472.027 331.285 465.238Z" fill="white"/>
<path d="M45.6333 488.03C68.5632 482.987 170.484 470.411 218.579 464.754C181.269 464.754 90.9748 474.775 50.4914 479.786C5.7976 333.531 5.3118 225.521 10.6556 189.798C17.6512 83.8892 88.3839 32.5189 122.876 20.0723C148.915 3.77865 222.141 0.998387 255.5 1.64496C204.588 -3.78626 152.348 5.52441 132.592 10.8586C93.4038 19.5874 12.4045 67.5955 1.91115 189.798C-8.58217 312 26.687 439.537 45.6333 488.03Z" fill="white"/>
<ellipse cx="159.311" cy="270.296" rx="70.9271" ry="70.7999" fill="white"/>
<path fill-rule="evenodd" clip-rule="evenodd" d="M247.706 272.257C247.72 271.605 247.727 270.952 247.727 270.296C247.727 219.946 206.837 179.13 156.396 179.13C105.956 179.13 65.0654 219.946 65.0654 270.296C65.0654 320.647 105.956 361.463 156.396 361.463C157.054 361.463 157.709 361.456 158.363 361.443C110.956 360.424 72.8382 321.743 72.8382 274.176C72.8382 225.968 111.988 186.888 160.283 186.888C207.934 186.888 246.684 224.936 247.706 272.257Z" fill="white"/>
<ellipse rx="70.9271" ry="70.7999" transform="matrix(-1 0 0 1 394.439 270.296)" fill="white"/>
<path fill-rule="evenodd" clip-rule="evenodd" d="M306.044 272.255C306.03 271.604 306.023 270.951 306.023 270.296C306.023 219.946 346.913 179.13 397.354 179.13C447.794 179.13 488.685 219.946 488.685 270.296C488.685 320.647 447.794 361.463 397.354 361.463C396.696 361.463 396.041 361.456 395.387 361.443C442.794 360.424 480.912 321.743 480.912 274.176C480.912 225.968 441.762 186.888 393.467 186.888C345.816 186.888 307.067 224.935 306.044 272.255Z" fill="white"/>
<path fill-rule="evenodd" clip-rule="evenodd" d="M266.187 480.756C167.861 456.316 125.143 382.962 116.075 349.34C178.646 371.065 214.369 343.198 224.408 326.548C224.408 342.066 236.715 350.148 242.869 352.25C224.214 340.611 235.096 312.162 242.869 299.392C271.628 264.865 298.574 285.006 308.452 299.392C329.827 328.1 317.359 346.592 308.452 352.25C322.443 349.922 327.56 334.146 328.37 326.548C358.684 367.67 413.223 358.877 436.704 349.34C413.385 432.36 325.941 471.543 285.134 480.756C274.632 483.127 271.395 482.21 267.885 481.216C267.335 481.061 266.779 480.903 266.187 480.756ZM248.698 340.126C255.582 343.726 259.591 351.299 261.918 355.696C263.039 357.815 263.77 359.196 264.244 359.039C264.244 359.039 263.273 351.28 261.329 347.885C259.386 344.491 255.625 340.527 250.642 338.187C247.533 337.799 248.213 339.641 248.698 340.126ZM290.941 356.101C293.348 351.617 297.495 343.891 304.616 340.22C305.118 339.725 305.822 337.845 302.605 338.241C297.451 340.629 293.56 344.671 291.55 348.134C289.539 351.597 288.534 359.511 288.534 359.511C289.025 359.672 289.781 358.263 290.941 356.101Z" fill="white"/>
<path d="M243.82 247.258C245.66 250.934 246.58 258.288 247.5 261.964C271.596 245.671 296.631 256.233 306.995 263.022C306.606 259.143 309.1 249.768 310.395 245.565L243.82 247.258Z" fill="white"/>
<path fill-rule="evenodd" clip-rule="evenodd" d="M258.708 431.599C233.072 424.679 228.451 406.984 227.809 399.773C249.485 393.241 258.707 398.013 261.73 406.333C270.574 398.778 285.346 396.245 302.137 412.047C296.401 419.096 280.55 432.211 262.945 432.233C261.321 432.235 259.913 432.011 258.708 431.599Z" fill="#EF2626"/>
</svg>
